Coordinates
version=1
nRows=17
nColumns=38
inDegrees=no

Units are S.I. units (second, meters, Newtons, ...)
If the header above contains a line with 'inDegrees', this indicates whether rotational values are in degrees (yes) or radians (no).

endheader
time	pelvis_tilt	pelvis_list	pelvis_rotation	pelvis_tx	pelvis_ty	pelvis_tz	hip_flexion_r	hip_adduction_r	hip_rotation_r	knee_angle_r	ankle_angle_r	subtalar_angle_r	mtp_angle_r	hip_flexion_l	hip_adduction_l	hip_rotation_l	knee_angle_l	ankle_angle_l	subtalar_angle_l	mtp_angle_l	lumbar_extension	lumbar_bending	lumbar_rotation	arm_flex_r	arm_add_r	arm_rot_r	elbow_flex_r	pro_sup_r	wrist_flex_r	wrist_dev_r	arm_flex_l	arm_add_l	arm_rot_l	elbow_flex_l	pro_sup_l	wrist_flex_l	wrist_dev_l
10	2.43773	1.42132	-0.807188	0.845461	1.61562	0.979758	0.0774022	0.119443	-0.248672	0.242957	-0.0194916	0	0	0.0518125	-0.115856	-0.0927473	0.174816	-0.010666	0	0	-0.0873898	0.191227	0.0682707	0.594288	-0.285137	0.15196	1.11719	1.5708	0	0	0.593615	-0.0287634	0.388	0.976794	1.5708	0	0
10.01	2.44527	1.4194	-0.815203	0.844959	1.6145	0.979762	0.0765768	0.119151	-0.248498	0.243544	-0.0205315	0	0	0.0506177	-0.11584	-0.0931936	0.174877	-0.0111998	0	0	-0.0904358	0.193145	0.0698265	0.605387	-0.290563	0.203772	1.14296	1.5708	0	0	0.590256	-0.0264172	0.38739	0.982228	1.5708	0	0
10.02	2.44396	1.42037	-0.813392	0.844644	1.61349	0.979748	0.07895	0.118028	-0.249036	0.244148	-0.0218276	0	0	0.0531758	-0.114977	-0.0927595	0.175588	-0.0125117	0	0	-0.0881379	0.190435	0.0687866	0.592479	-0.291735	0.151715	1.12019	1.5708	0	0	0.586747	-0.0250659	0.388447	0.985162	1.5708	0	0
10.03	2.44608	1.42023	-0.815002	0.844278	1.61241	0.979699	0.0804261	0.117109	-0.249908	0.245354	-0.0226718	0	0	0.0548068	-0.114524	-0.0926916	0.17684	-0.0130792	0	0	-0.0880001	0.189676	0.0693499	0.589972	-0.293254	0.144767	1.12216	1.5708	0	0	0.58442	-0.0231273	0.390143	0.987887	1.5708	0	0
10.04	2.44978	1.41972	-0.817937	0.843872	1.61133	0.979668	0.0813955	0.116199	-0.251137	0.24645	-0.0234733	0	0	0.0561348	-0.114122	-0.0926435	0.178373	-0.0133791	0	0	-0.0883438	0.189237	0.0693754	0.587902	-0.295911	0.141502	1.12483	1.5708	0	0	0.582048	-0.0216114	0.391372	0.991202	1.5708	0	0
10.05	2.45545	1.41907	-0.822725	0.843444	1.61028	0.979659	0.0818615	0.115131	-0.252232	0.247272	-0.0242857	0	0	0.0572694	-0.113571	-0.0927848	0.180211	-0.013496	0	0	-0.0890183	0.188827	0.0690975	0.585812	-0.298478	0.138756	1.12781	1.5708	0	0	0.579665	-0.0205271	0.392617	0.994912	1.5708	0	0
10.06	2.46032	1.41849	-0.82652	0.843076	1.60919	0.979612	0.0826252	0.114157	-0.2536	0.248447	-0.024901	0	0	0.0587001	-0.113117	-0.0926709	0.182155	-0.0135959	0	0	-0.0896158	0.188357	0.0687775	0.583222	-0.300693	0.135349	1.13131	1.5708	0	0	0.577441	-0.0197969	0.394144	0.998471	1.5708	0	0
10.07	2.46397	1.41792	-0.828926	0.842758	1.60809	0.979534	0.0836978	0.113275	-0.255273	0.249966	-0.0252858	0	0	0.0604049	-0.112836	-0.0921797	0.184178	-0.013723	0	0	-0.0901301	0.187944	0.0684729	0.580037	-0.302532	0.131087	1.13551	1.5708	0	0	0.575404	-0.0193833	0.396183	1.00157	1.5708	0	0
10.08	2.46735	1.41725	-0.830906	0.842443	1.60695	0.979451	0.0846689	0.112457	-0.256899	0.251206	-0.0257569	0	0	0.0622208	-0.112594	-0.0911716	0.186368	-0.0138304	0	0	-0.0907165	0.18767	0.0681836	0.57632	-0.304184	0.126272	1.1405	1.5708	0	0	0.57376	-0.0192246	0.399181	1.00362	1.5708	0	0
10.09	2.47161	1.41642	-0.833255	0.842146	1.60579	0.979387	0.0853316	0.111631	-0.258894	0.252179	-0.0264224	0	0	0.0644173	-0.112488	-0.0899273	0.189551	-0.0135587	0	0	-0.0915121	0.187339	0.0676269	0.571915	-0.305539	0.12071	1.1463	1.5708	0	0	0.572776	-0.0193938	0.40345	1.00483	1.5708	0	0
10.1	2.47668	1.41541	-0.836319	0.841876	1.60461	0.979345	0.0857813	0.110799	-0.260829	0.253187	-0.0272695	0	0	0.0668667	-0.112568	-0.088984	0.193653	-0.0128068	0	0	-0.0925453	0.186986	0.0671727	0.566889	-0.30652	0.114276	1.15261	1.5708	0	0	0.572101	-0.0198467	0.408585	1.00611	1.5708	0	0
10.11	2.48173	1.41452	-0.839239	0.841629	1.60344	0.979277	0.0862951	0.10988	-0.262997	0.254181	-0.0279033	0	0	0.0697566	-0.11268	-0.0881411	0.198491	-0.0115639	0	0	-0.0934093	0.186515	0.0665773	0.561364	-0.307053	0.107405	1.15934	1.5708	0	0	0.571335	-0.0206211	0.413561	1.00769	1.5708	0	0
10.12	2.48692	1.41364	-0.842376	0.841385	1.60224	0.979201	0.0869622	0.108904	-0.265227	0.255514	-0.0283654	0	0	0.072662	-0.112744	-0.0871886	0.203407	-0.0101643	0	0	-0.0943724	0.18608	0.06595	0.555653	-0.307236	0.100506	1.16652	1.5708	0	0	0.570362	-0.0215847	0.417655	1.00972	1.5708	0	0
10.13	2.49249	1.41279	-0.846053	0.841148	1.60102	0.979118	0.087676	0.1079	-0.26733	0.256924	-0.0288938	0	0	0.0753963	-0.112713	-0.0862334	0.208099	-0.00867533	0	0	-0.0954137	0.185608	0.0652517	0.549948	-0.307018	0.0942501	1.17385	1.5708	0	0	0.5691	-0.0227643	0.420647	1.01246	1.5708	0	0
10.14	2.49807	1.41193	-0.849953	0.840936	1.59979	0.979036	0.0883882	0.106956	-0.269281	0.258348	-0.0295156	0	0	0.0778104	-0.112664	-0.0849877	0.212227	-0.00719603	0	0	-0.0965074	0.185132	0.0644174	0.544547	-0.306308	0.0894044	1.18056	1.5708	0	0	0.56757	-0.0242021	0.422755	1.01596	1.5708	0	0
10.15	2.50449	1.41104	-0.854749	0.840718	1.59852	0.978967	0.088919	0.105908	-0.271036	0.259576	-0.0301565	0	0	0.080242	-0.112543	-0.0841831	0.21662	-0.00522072	0	0	-0.0976998	0.184554	0.0634578	0.539398	-0.305278	0.084427	1.18685	1.5708	0	0	0.566088	-0.0257795	0.424675	1.01965	1.5708	0	0
10.16	2.51216	1.41007	-0.860659	0.840479	1.59722	0.978918	0.0891288	0.104713	-0.272928	0.260525	-0.0306609	0	0	0.082593	-0.11242	-0.0837582	0.221276	-0.00262297	0	0	-0.099017	0.183834	0.0624764	0.533768	-0.303981	0.07717	1.19419	1.5708	0	0	0.564953	-0.0273553	0.427108	1.02275	1.5708	0	0
